<svg width="358" height="100" viewBox="0 0 358 100" fill="none" xmlns="http://www.w3.org/2000/svg">
<path d="M0.818182 4.90909H19.8636L42.6364 46.0909H43.5455L66.3182 4.90909H85.3636L51.5 63.2727V98H34.6818V63.2727L0.818182 4.90909ZM99.0909 19.0455V4.90909H173.364V19.0455H144.591V98H127.864V19.0455H99.0909Z" fill="#FF3F3F"/>
<path d="M270.023 30.5C269.598 26.5303 267.811 23.4394 264.659 21.2273C261.538 19.0151 257.477 17.9091 252.477 17.9091C248.962 17.9091 245.947 18.4394 243.432 19.5C240.917 20.5606 238.992 22 237.659 23.8182C236.326 25.6364 235.644 27.7121 235.614 30.0455C235.614 31.9848 236.053 33.6667 236.932 35.0909C237.841 36.5152 239.068 37.7273 240.614 38.7273C242.159 39.697 243.871 40.5151 245.75 41.1818C247.629 41.8485 249.523 42.4091 251.432 42.8636L260.159 45.0455C263.674 45.8636 267.053 46.9697 270.295 48.3636C273.568 49.7576 276.492 51.5152 279.068 53.6364C281.674 55.7576 283.735 58.3182 285.25 61.3182C286.765 64.3182 287.523 67.8333 287.523 71.8636C287.523 77.3182 286.129 82.1212 283.341 86.2727C280.553 90.3939 276.523 93.6212 271.25 95.9545C266.008 98.2576 259.659 99.4091 252.205 99.4091C244.962 99.4091 238.674 98.2879 233.341 96.0455C228.038 93.803 223.886 90.5303 220.886 86.2273C217.917 81.9242 216.311 76.6818 216.068 70.5H232.659C232.902 73.7424 233.902 76.4394 235.659 78.5909C237.417 80.7424 239.705 82.3485 242.523 83.4091C245.371 84.4697 248.553 85 252.068 85C255.735 85 258.947 84.4545 261.705 83.3636C264.492 82.2424 266.674 80.697 268.25 78.7273C269.826 76.7273 270.629 74.3939 270.659 71.7273C270.629 69.303 269.917 67.303 268.523 65.7273C267.129 64.1212 265.174 62.7879 262.659 61.7273C260.174 60.6364 257.265 59.6667 253.932 58.8182L243.341 56.0909C235.674 54.1212 229.614 51.1364 225.159 47.1364C220.735 43.1061 218.523 37.7576 218.523 31.0909C218.523 25.6061 220.008 20.803 222.977 16.6818C225.977 12.5606 230.053 9.36363 235.205 7.0909C240.356 4.78787 246.189 3.63636 252.705 3.63636C259.311 3.63636 265.098 4.78787 270.068 7.0909C275.068 9.36363 278.992 12.5303 281.841 16.5909C284.689 20.6212 286.159 25.2576 286.25 30.5H270.023ZM332.739 99.3636C325.739 99.3636 319.693 97.9091 314.602 95C309.542 92.0606 305.648 87.9091 302.92 82.5455C300.193 77.1515 298.83 70.803 298.83 63.5C298.83 56.3182 300.193 50.0152 302.92 44.5909C305.678 39.1364 309.527 34.8939 314.466 31.8636C319.405 28.803 325.208 27.2727 331.875 27.2727C336.178 27.2727 340.239 27.9697 344.057 29.3636C347.905 30.7273 351.299 32.8485 354.239 35.7273C357.208 38.6061 359.542 42.2727 361.239 46.7273C362.936 51.1515 363.784 56.4242 363.784 62.5455V67.5909H306.557V56.5H348.011C347.981 53.3485 347.299 50.5455 345.966 48.0909C344.633 45.6061 342.769 43.6515 340.375 42.2273C338.011 40.803 335.254 40.0909 332.102 40.0909C328.739 40.0909 325.784 40.9091 323.239 42.5455C320.693 44.1515 318.708 46.2727 317.284 48.9091C315.89 51.5151 315.178 54.3788 315.148 57.5V67.1818C315.148 71.2424 315.89 74.7273 317.375 77.6364C318.86 80.5152 320.936 82.7273 323.602 84.2727C326.269 85.7879 329.39 86.5455 332.966 86.5455C335.36 86.5455 337.527 86.2121 339.466 85.5455C341.405 84.8485 343.087 83.8333 344.511 82.5C345.936 81.1667 347.011 79.5152 347.739 77.5455L363.102 79.2727C362.133 83.3333 360.284 86.8788 357.557 89.9091C354.86 92.9091 351.405 95.2424 347.193 96.9091C342.981 98.5455 338.163 99.3636 332.739 99.3636ZM394.159 57.0909V98H377.705V28.1818H393.432V40.0455H394.25C395.856 36.1364 398.417 33.0303 401.932 30.7273C405.477 28.4242 409.856 27.2727 415.068 27.2727C419.886 27.2727 424.083 28.303 427.659 30.3636C431.265 32.4242 434.053 35.4091 436.023 39.3182C438.023 43.2273 439.008 47.9697 438.977 53.5455V98H422.523V56.0909C422.523 51.4242 421.311 47.7727 418.886 45.1364C416.492 42.5 413.174 41.1818 408.932 41.1818C406.053 41.1818 403.492 41.8182 401.25 43.0909C399.038 44.3333 397.295 46.1364 396.023 48.5C394.78 50.8636 394.159 53.7273 394.159 57.0909ZM490.568 28.1818V40.9091H450.432V28.1818H490.568ZM460.341 11.4545H476.795V77C476.795 79.2121 477.129 80.9091 477.795 82.0909C478.492 83.2424 479.402 84.0303 480.523 84.4545C481.644 84.8788 482.886 85.0909 484.25 85.0909C485.28 85.0909 486.22 85.0152 487.068 84.8636C487.947 84.7121 488.614 84.5758 489.068 84.4545L491.841 97.3182C490.962 97.6212 489.705 97.9545 488.068 98.3182C486.462 98.6818 484.492 98.8939 482.159 98.9545C478.038 99.0758 474.326 98.4545 471.023 97.0909C467.72 95.697 465.098 93.5455 463.159 90.6364C461.25 87.7273 460.311 84.0909 460.341 79.7273V11.4545ZM504.33 98V28.1818H520.784V98H504.33ZM512.602 18.2727C509.996 18.2727 507.754 17.4091 505.875 15.6818C503.996 13.9242 503.057 11.8182 503.057 9.36363C503.057 6.87878 503.996 4.77272 505.875 3.04545C507.754 1.28787 509.996 0.409088 512.602 0.409088C515.239 0.409088 517.481 1.28787 519.33 3.04545C521.208 4.77272 522.148 6.87878 522.148 9.36363C522.148 11.8182 521.208 13.9242 519.33 15.6818C517.481 17.4091 515.239 18.2727 512.602 18.2727ZM537.705 98V28.1818H553.432V40.0455H554.25C555.705 36.0455 558.114 32.9242 561.477 30.6818C564.841 28.4091 568.856 27.2727 573.523 27.2727C578.25 27.2727 582.235 28.4242 585.477 30.7273C588.75 33 591.053 36.1061 592.386 40.0455H593.114C594.659 36.1667 597.265 33.0758 600.932 30.7727C604.629 28.4394 609.008 27.2727 614.068 27.2727C620.492 27.2727 625.735 29.303 629.795 33.3636C633.856 37.4242 635.886 43.3485 635.886 51.1364V98H619.386V53.6818C619.386 49.3485 618.235 46.1818 615.932 44.1818C613.629 42.1515 610.811 41.1364 607.477 41.1364C603.508 41.1364 600.402 42.3788 598.159 44.8636C595.947 47.3182 594.841 50.5151 594.841 54.4545V98H578.705V53C578.705 49.3939 577.614 46.5152 575.432 44.3636C573.28 42.2121 570.462 41.1364 566.977 41.1364C564.614 41.1364 562.462 41.7424 560.523 42.9545C558.583 44.1364 557.038 45.8182 555.886 48C554.735 50.1515 554.159 52.6667 554.159 55.5455V98H537.705ZM683.489 99.3636C676.489 99.3636 670.443 97.9091 665.352 95C660.292 92.0606 656.398 87.9091 653.67 82.5455C650.943 77.1515 649.58 70.803 649.58 63.5C649.58 56.3182 650.943 50.0152 653.67 44.5909C656.428 39.1364 660.277 34.8939 665.216 31.8636C670.155 28.803 675.958 27.2727 682.625 27.2727C686.928 27.2727 690.989 27.9697 694.807 29.3636C698.655 30.7273 702.049 32.8485 704.989 35.7273C707.958 38.6061 710.292 42.2727 711.989 46.7273C713.686 51.1515 714.534 56.4242 714.534 62.5455V67.5909H657.307V56.5H698.761C698.731 53.3485 698.049 50.5455 696.716 48.0909C695.383 45.6061 693.519 43.6515 691.125 42.2273C688.761 40.803 686.004 40.0909 682.852 40.0909C679.489 40.0909 676.534 40.9091 673.989 42.5455C671.443 44.1515 669.458 46.2727 668.034 48.9091C666.64 51.5151 665.928 54.3788 665.898 57.5V67.1818C665.898 71.2424 666.64 74.7273 668.125 77.6364C669.61 80.5152 671.686 82.7273 674.352 84.2727C677.019 85.7879 680.14 86.5455 683.716 86.5455C686.11 86.5455 688.277 86.2121 690.216 85.5455C692.155 84.8485 693.837 83.8333 695.261 82.5C696.686 81.1667 697.761 79.5152 698.489 77.5455L713.852 79.2727C712.883 83.3333 711.034 86.8788 708.307 89.9091C705.61 92.9091 702.155 95.2424 697.943 96.9091C693.731 98.5455 688.913 99.3636 683.489 99.3636ZM744.909 57.0909V98H728.455V28.1818H744.182V40.0455H745C746.606 36.1364 749.167 33.0303 752.682 30.7273C756.227 28.4242 760.606 27.2727 765.818 27.2727C770.636 27.2727 774.833 28.303 778.409 30.3636C782.015 32.4242 784.803 35.4091 786.773 39.3182C788.773 43.2273 789.758 47.9697 789.727 53.5455V98H773.273V56.0909C773.273 51.4242 772.061 47.7727 769.636 45.1364C767.242 42.5 763.924 41.1818 759.682 41.1818C756.803 41.1818 754.242 41.8182 752 43.0909C749.788 44.3333 748.045 46.1364 746.773 48.5C745.53 50.8636 744.909 53.7273 744.909 57.0909ZM841.318 28.1818V40.9091H801.182V28.1818H841.318ZM811.091 11.4545H827.545V77C827.545 79.2121 827.879 80.9091 828.545 82.0909C829.242 83.2424 830.152 84.0303 831.273 84.4545C832.394 84.8788 833.636 85.0909 835 85.0909C836.03 85.0909 836.97 85.0152 837.818 84.8636C838.697 84.7121 839.364 84.5758 839.818 84.4545L842.591 97.3182C841.712 97.6212 840.455 97.9545 838.818 98.3182C837.212 98.6818 835.242 98.8939 832.909 98.9545C828.788 99.0758 825.076 98.4545 821.773 97.0909C818.47 95.697 815.848 93.5455 813.909 90.6364C812 87.7273 811.061 84.0909 811.091 79.7273V11.4545ZM909.261 46.6364L894.261 48.2727C893.837 46.7576 893.095 45.3333 892.034 44C891.004 42.6667 889.61 41.5909 887.852 40.7727C886.095 39.9545 883.943 39.5455 881.398 39.5455C877.973 39.5455 875.095 40.2879 872.761 41.7727C870.458 43.2576 869.322 45.1818 869.352 47.5455C869.322 49.5758 870.064 51.2273 871.58 52.5C873.125 53.7727 875.67 54.8182 879.216 55.6364L891.125 58.1818C897.731 59.6061 902.64 61.8636 905.852 64.9545C909.095 68.0455 910.731 72.0909 910.761 77.0909C910.731 81.4848 909.443 85.3636 906.898 88.7273C904.383 92.0606 900.883 94.6667 896.398 96.5455C891.913 98.4242 886.761 99.3636 880.943 99.3636C872.398 99.3636 865.519 97.5758 860.307 94C855.095 90.3939 851.989 85.3788 850.989 78.9545L867.034 77.4091C867.761 80.5606 869.307 82.9394 871.67 84.5455C874.034 86.1515 877.11 86.9545 880.898 86.9545C884.807 86.9545 887.943 86.1515 890.307 84.5455C892.701 82.9394 893.898 80.9545 893.898 78.5909C893.898 76.5909 893.125 74.9394 891.58 73.6364C890.064 72.3333 887.701 71.3333 884.489 70.6364L872.58 68.1364C865.883 66.7424 860.928 64.3939 857.716 61.0909C854.504 57.7576 852.913 53.5455 852.943 48.4545C852.913 44.1515 854.08 40.4242 856.443 37.2727C858.837 34.0909 862.155 31.6364 866.398 29.9091C870.67 28.1515 875.595 27.2727 881.17 27.2727C889.352 27.2727 895.792 29.0152 900.489 32.5C905.216 35.9848 908.14 40.697 909.261 46.6364Z" fill="#667788"/>
</svg>
