<svg svg width="500px" height="500px" viewBox="0 0 86 11" fill="none" xmlns="http://www.w3.org/2000/svg">
<path d="M0.264205 1.27273H2.04972L4.18466 5.13352H4.26989L6.40483 1.27273H8.19034L5.01562 6.74432V10H3.43892V6.74432L0.264205 1.27273ZM9.47727 2.59801V1.27273H16.4403V2.59801H13.7429V10H12.1747V2.59801H9.47727Z" fill="#FF3F3F"/>
<path d="M25.5021 3.67188C25.4624 3.29972 25.2947 3.00994 24.9993 2.80256C24.7067 2.59517 24.326 2.49148 23.8572 2.49148C23.5277 2.49148 23.245 2.54119 23.0092 2.64062C22.7734 2.74006 22.593 2.875 22.468 3.04545C22.343 3.21591 22.2791 3.41051 22.2763 3.62926C22.2763 3.81108 22.3175 3.96875 22.3999 4.10227C22.4851 4.2358 22.6001 4.34943 22.745 4.44318C22.8899 4.53409 23.0504 4.6108 23.2266 4.6733C23.4027 4.7358 23.5803 4.78835 23.7592 4.83097L24.5774 5.03551C24.907 5.11222 25.2237 5.21591 25.5277 5.34659C25.8345 5.47727 26.1087 5.64205 26.3501 5.84091C26.5945 6.03977 26.7876 6.27983 26.9297 6.56108C27.0717 6.84233 27.1428 7.17187 27.1428 7.54972C27.1428 8.06108 27.0121 8.51136 26.7507 8.90057C26.4893 9.28693 26.1115 9.58949 25.6172 9.80824C25.1257 10.0241 24.5305 10.1321 23.8317 10.1321C23.1527 10.1321 22.5632 10.027 22.0632 9.81676C21.5661 9.60653 21.1768 9.29972 20.8956 8.89631C20.6172 8.4929 20.4666 8.00142 20.4439 7.42188H21.9993C22.022 7.72585 22.1158 7.97869 22.2805 8.1804C22.4453 8.3821 22.6598 8.53267 22.924 8.6321C23.1911 8.73153 23.4893 8.78125 23.8189 8.78125C24.1626 8.78125 24.4638 8.73011 24.7223 8.62784C24.9837 8.52273 25.1882 8.37784 25.3359 8.19318C25.4837 8.00568 25.5589 7.78693 25.5618 7.53693C25.5589 7.30966 25.4922 7.12216 25.3615 6.97443C25.2308 6.82386 25.0476 6.69886 24.8118 6.59943C24.5788 6.49716 24.3061 6.40625 23.9936 6.3267L23.0007 6.07102C22.282 5.88636 21.7138 5.60653 21.2962 5.23153C20.8814 4.85369 20.674 4.35227 20.674 3.72727C20.674 3.21307 20.8132 2.76278 21.0916 2.37642C21.3729 1.99006 21.755 1.69034 22.2379 1.47727C22.7209 1.26136 23.2678 1.15341 23.8786 1.15341C24.4979 1.15341 25.0405 1.26136 25.5064 1.47727C25.9751 1.69034 26.343 1.98722 26.6101 2.3679C26.8771 2.74574 27.0149 3.1804 27.0234 3.67188H25.5021ZM31.3817 10.1278C30.7255 10.1278 30.1587 9.99148 29.6815 9.71875C29.207 9.44318 28.842 9.05398 28.5863 8.55114C28.3306 8.04545 28.2028 7.45028 28.2028 6.76562C28.2028 6.09233 28.3306 5.50142 28.5863 4.9929C28.8448 4.48153 29.2056 4.08381 29.6687 3.79972C30.1317 3.51278 30.6758 3.36932 31.3008 3.36932C31.7042 3.36932 32.0849 3.43466 32.4428 3.56534C32.8036 3.69318 33.1218 3.89205 33.3974 4.16193C33.6758 4.43182 33.8945 4.77557 34.0536 5.19318C34.2127 5.60795 34.2923 6.10227 34.2923 6.67614V7.14915H28.9272V6.10938H32.8136C32.8107 5.81392 32.7468 5.55114 32.6218 5.32102C32.4968 5.08807 32.3221 4.90483 32.0977 4.77131C31.8761 4.63778 31.6175 4.57102 31.3221 4.57102C31.0067 4.57102 30.7298 4.64773 30.4911 4.80114C30.2525 4.9517 30.0664 5.15057 29.9329 5.39773C29.8022 5.64205 29.7354 5.91051 29.7326 6.20312V7.1108C29.7326 7.49148 29.8022 7.81818 29.9414 8.09091C30.0806 8.3608 30.2752 8.56818 30.5252 8.71307C30.7752 8.85511 31.0678 8.92614 31.4031 8.92614C31.6275 8.92614 31.8306 8.89489 32.0124 8.83239C32.1942 8.76705 32.3519 8.67188 32.4854 8.54688C32.619 8.42188 32.7198 8.26705 32.788 8.08239L34.2283 8.24432C34.1374 8.625 33.9641 8.95739 33.7085 9.24148C33.4556 9.52273 33.1317 9.74148 32.7369 9.89773C32.342 10.0511 31.8903 10.1278 31.3817 10.1278ZM37.1399 6.16477V10H35.5973V3.45455H37.0717V4.56676H37.1484C37.299 4.20028 37.5391 3.90909 37.8686 3.69318C38.201 3.47727 38.6115 3.36932 39.1001 3.36932C39.5518 3.36932 39.9453 3.46591 40.2805 3.65909C40.6186 3.85227 40.88 4.1321 41.0646 4.49858C41.2521 4.86506 41.3445 5.30966 41.3416 5.83239V10H39.799V6.07102C39.799 5.63352 39.6854 5.29119 39.4581 5.04403C39.2337 4.79687 38.9226 4.6733 38.5249 4.6733C38.255 4.6733 38.0149 4.73295 37.8047 4.85227C37.5973 4.96875 37.4339 5.13778 37.3146 5.35938C37.1982 5.58097 37.1399 5.84943 37.1399 6.16477ZM46.1783 3.45455V4.64773H42.4155V3.45455H46.1783ZM43.3445 1.88636H44.8871V8.03125C44.8871 8.23864 44.9183 8.39773 44.9808 8.50852C45.0462 8.61648 45.1314 8.69034 45.2365 8.73011C45.3416 8.76989 45.4581 8.78977 45.5859 8.78977C45.6825 8.78977 45.7706 8.78267 45.8501 8.76847C45.9325 8.75426 45.995 8.74148 46.0376 8.73011L46.2976 9.93608C46.2152 9.96449 46.0973 9.99574 45.9439 10.0298C45.7933 10.0639 45.6087 10.0838 45.3899 10.0895C45.0036 10.1009 44.6555 10.0426 44.3459 9.91477C44.0362 9.78409 43.7905 9.58239 43.6087 9.30966C43.4297 9.03693 43.3416 8.69602 43.3445 8.28693V1.88636ZM47.4684 10V3.45455H49.011V10H47.4684ZM48.244 2.52557C47.9996 2.52557 47.7894 2.4446 47.6133 2.28267C47.4371 2.1179 47.3491 1.92045 47.3491 1.69034C47.3491 1.45739 47.4371 1.25994 47.6133 1.09801C47.7894 0.933238 47.9996 0.850852 48.244 0.850852C48.4911 0.850852 48.7013 0.933238 48.8746 1.09801C49.0508 1.25994 49.1388 1.45739 49.1388 1.69034C49.1388 1.92045 49.0508 2.1179 48.8746 2.28267C48.7013 2.4446 48.4911 2.52557 48.244 2.52557ZM50.5973 10V3.45455H52.0717V4.56676H52.1484C52.2848 4.19176 52.5107 3.89915 52.826 3.68892C53.1413 3.47585 53.5178 3.36932 53.9553 3.36932C54.3984 3.36932 54.772 3.47727 55.076 3.69318C55.3828 3.90625 55.5987 4.19744 55.7237 4.56676H55.7919C55.9368 4.20312 56.1811 3.91335 56.5249 3.69744C56.8714 3.47869 57.282 3.36932 57.7564 3.36932C58.3587 3.36932 58.8501 3.55966 59.2308 3.94034C59.6115 4.32102 59.8018 4.87642 59.8018 5.60653V10H58.255V5.84517C58.255 5.43892 58.147 5.14205 57.9311 4.95455C57.7152 4.7642 57.451 4.66903 57.1385 4.66903C56.7663 4.66903 56.4751 4.78551 56.2649 5.01847C56.0575 5.24858 55.9538 5.5483 55.9538 5.91761V10H54.4411V5.78125C54.4411 5.44318 54.3388 5.1733 54.1342 4.97159C53.9325 4.76989 53.6683 4.66903 53.3416 4.66903C53.12 4.66903 52.9183 4.72585 52.7365 4.83949C52.5547 4.95028 52.4098 5.10795 52.3018 5.3125C52.1939 5.5142 52.1399 5.75 52.1399 6.01989V10H50.5973ZM64.2646 10.1278C63.6083 10.1278 63.0415 9.99148 62.5643 9.71875C62.0898 9.44318 61.7248 9.05398 61.4691 8.55114C61.2134 8.04545 61.0856 7.45028 61.0856 6.76562C61.0856 6.09233 61.2134 5.50142 61.4691 4.9929C61.7276 4.48153 62.0884 4.08381 62.5515 3.79972C63.0146 3.51278 63.5586 3.36932 64.1836 3.36932C64.587 3.36932 64.9677 3.43466 65.3256 3.56534C65.6864 3.69318 66.0046 3.89205 66.2802 4.16193C66.5586 4.43182 66.7773 4.77557 66.9364 5.19318C67.0955 5.60795 67.1751 6.10227 67.1751 6.67614V7.14915H61.81V6.10938H65.6964C65.6935 5.81392 65.6296 5.55114 65.5046 5.32102C65.3796 5.08807 65.2049 4.90483 64.9805 4.77131C64.7589 4.63778 64.5004 4.57102 64.2049 4.57102C63.8896 4.57102 63.6126 4.64773 63.3739 4.80114C63.1353 4.9517 62.9492 5.15057 62.8157 5.39773C62.685 5.64205 62.6183 5.91051 62.6154 6.20312V7.1108C62.6154 7.49148 62.685 7.81818 62.8242 8.09091C62.9634 8.3608 63.158 8.56818 63.408 8.71307C63.658 8.85511 63.9506 8.92614 64.2859 8.92614C64.5103 8.92614 64.7134 8.89489 64.8952 8.83239C65.0771 8.76705 65.2347 8.67188 65.3683 8.54688C65.5018 8.42188 65.6026 8.26705 65.6708 8.08239L67.1112 8.24432C67.0202 8.625 66.8469 8.95739 66.5913 9.24148C66.3384 9.52273 66.0146 9.74148 65.6197 9.89773C65.2248 10.0511 64.7731 10.1278 64.2646 10.1278ZM70.0227 6.16477V10H68.4801V3.45455H69.9545V4.56676H70.0312C70.1818 4.20028 70.4219 3.90909 70.7514 3.69318C71.0838 3.47727 71.4943 3.36932 71.983 3.36932C72.4347 3.36932 72.8281 3.46591 73.1634 3.65909C73.5014 3.85227 73.7628 4.1321 73.9474 4.49858C74.1349 4.86506 74.2273 5.30966 74.2244 5.83239V10H72.6818V6.07102C72.6818 5.63352 72.5682 5.29119 72.3409 5.04403C72.1165 4.79687 71.8054 4.6733 71.4077 4.6733C71.1378 4.6733 70.8977 4.73295 70.6875 4.85227C70.4801 4.96875 70.3168 5.13778 70.1974 5.35938C70.081 5.58097 70.0227 5.84943 70.0227 6.16477ZM79.0611 3.45455V4.64773H75.2983V3.45455H79.0611ZM76.2273 1.88636H77.7699V8.03125C77.7699 8.23864 77.8011 8.39773 77.8636 8.50852C77.929 8.61648 78.0142 8.69034 78.1193 8.73011C78.2244 8.76989 78.3409 8.78977 78.4688 8.78977C78.5653 8.78977 78.6534 8.78267 78.733 8.76847C78.8153 8.75426 78.8778 8.74148 78.9205 8.73011L79.1804 9.93608C79.098 9.96449 78.9801 9.99574 78.8267 10.0298C78.6761 10.0639 78.4915 10.0838 78.2727 10.0895C77.8864 10.1009 77.5384 10.0426 77.2287 9.91477C76.919 9.78409 76.6733 9.58239 76.4915 9.30966C76.3125 9.03693 76.2244 8.69602 76.2273 8.28693V1.88636ZM85.4308 5.18466L84.0245 5.33807C83.9847 5.19602 83.9151 5.0625 83.8157 4.9375C83.7191 4.8125 83.5884 4.71165 83.4237 4.63494C83.2589 4.55824 83.0572 4.51989 82.8185 4.51989C82.4975 4.51989 82.2276 4.58949 82.0089 4.72869C81.793 4.8679 81.6864 5.0483 81.6893 5.26989C81.6864 5.46023 81.756 5.61506 81.8981 5.73438C82.043 5.85369 82.2816 5.9517 82.614 6.02841L83.7305 6.26705C84.3498 6.40057 84.81 6.61222 85.1112 6.90199C85.4151 7.19176 85.5685 7.57102 85.5714 8.03977C85.5685 8.4517 85.4478 8.81534 85.2092 9.13068C84.9734 9.44318 84.6452 9.6875 84.2248 9.86364C83.8043 10.0398 83.3214 10.1278 82.7759 10.1278C81.9748 10.1278 81.3299 9.96023 80.8413 9.625C80.3526 9.28693 80.0614 8.81676 79.9677 8.21449L81.4719 8.0696C81.5401 8.36506 81.685 8.58807 81.9066 8.73864C82.1282 8.8892 82.4165 8.96449 82.7717 8.96449C83.1381 8.96449 83.4322 8.8892 83.6538 8.73864C83.8782 8.58807 83.9904 8.40199 83.9904 8.1804C83.9904 7.9929 83.918 7.83807 83.7731 7.71591C83.631 7.59375 83.4094 7.5 83.1083 7.43466L81.9918 7.20028C81.364 7.0696 80.8995 6.84943 80.5984 6.53977C80.2972 6.22727 80.1481 5.83239 80.1509 5.35511C80.1481 4.9517 80.2575 4.60227 80.479 4.30682C80.7035 4.00852 81.0146 3.77841 81.4123 3.61648C81.8129 3.4517 82.2745 3.36932 82.7972 3.36932C83.5643 3.36932 84.168 3.53267 84.6083 3.85938C85.0515 4.18608 85.3256 4.62784 85.4308 5.18466Z" fill="#667788"/>
</svg>
